<svg xmlns="http://www.w3.org/2000/svg" xmlns:xlink="http://www.w3.org/1999/xlink" version="1.1" id="Layer_1" x="0px" y="0px" viewBox="0 0 463 135.7" style="enable-background:new 0 0 463 135.7;" xml:space="preserve">
<style type="text/css">
	.st0{fill:#FFFFFF;}
	.st1{fill:#C6E3E6;}
</style>
<g id="Layer_2_1_">
	<g id="background_waves">
		<g id="Ellipse_2">
			<path class="st0" d="M34.7,41.3c-0.4,1.2-0.8,2.4-1.3,3.6c-1.7,3.9-4.1,7.5-7.2,10.5c-4.4,4.3-10,7.3-16.4,8.6     c-1.6,0.3-3.1,0.5-4.7,0.5c-1.2,0.1-2.4,0-3.5,0c-0.5,0-1.1-0.1-1.7-0.1V0.2c16.7-2,32.2,9.2,35.4,25.9     C36.4,31.4,36.1,36.5,34.7,41.3z"/>
		</g>
		<g id="Ellipse_2_copy">
			<circle class="st0" cx="36.1" cy="73.6" r="32.3"/>
		</g>
		<g id="Ellipse_2_copy_2">
			<circle class="st0" cx="81.3" cy="73.6" r="32.3"/>
		</g>
		<g id="Ellipse_2_copy_3">
			<circle class="st0" cx="110.1" cy="89.4" r="32.3"/>
		</g>
		<g id="Ellipse_2_copy_4">
			<circle class="st0" cx="137.2" cy="90.6" r="32.3"/>
		</g>
		<g id="Ellipse_2_copy_5">
			<circle class="st0" cx="168.4" cy="79.6" r="32.3"/>
		</g>
		<g id="Ellipse_2_copy_6">
			<circle class="st0" cx="198.9" cy="89.4" r="32.3"/>
		</g>
		<g id="Ellipse_2_copy_7">
			<circle class="st0" cx="237.7" cy="90.6" r="32.3"/>
		</g>
		<g id="Ellipse_2_copy_8">
			<circle class="st0" cx="264.4" cy="85.6" r="32.3"/>
		</g>
		<g id="Ellipse_2_copy_9">
			<circle class="st0" cx="302.3" cy="89.6" r="32.3"/>
		</g>
		<g id="Ellipse_2_copy_10">
			<circle class="st0" cx="324.9" cy="96.8" r="32.3"/>
		</g>
		<g id="Ellipse_2_copy_11">
			<circle class="st0" cx="351" cy="94.4" r="32.3"/>
		</g>
		<g id="Ellipse_2_copy_12">
			<circle class="st0" cx="387.5" cy="91.9" r="33.6"/>
		</g>
		<g id="Ellipse_2_copy_13">
			<circle class="st0" cx="426.6" cy="73.6" r="32.3"/>
		</g>
		<g id="Ellipse_2_copy_14">
			<path class="st0" d="M463,7.8v64.3c-0.7,0.1-1.3,0.1-2,0.1c-0.7,0-1.4,0-2.2,0c-7.3-0.3-14.2-3.1-19.6-7.7     c-5-4.3-8.8-10.2-10.4-17.1c0-0.2-0.1-0.3-0.1-0.5c-0.4-1.9-0.7-3.8-0.7-5.6c-0.6-15.2,9.5-29.1,24.8-32.7     C456.2,7.8,459.7,7.5,463,7.8z"/>
		</g>
	</g>
	<g id="background_waves_copy_3">
		<g id="Ellipse_2-2">
			<path class="st1" d="M30.3,39.8c0,0.7,0,1.3-0.1,2c-0.1,1.1-0.2,2.2-0.4,3.3c-0.6,3.7-1.8,7.2-3.6,10.3     c-4.6,8.3-12.7,14.3-22.3,16.1C2.6,71.8,1.3,72,0,72V7.6C16.9,8.6,30.3,22.7,30.3,39.8z"/>
		</g>
		<g id="Ellipse_2_copy-2">
			<path class="st1" d="M68.4,80.1c0,7.3-2.2,14-6,19.7c-1,1.4-2,2.8-3.1,4c-6.4,7.1-15.8,11.6-26.1,11.6     c-15.3,0-28.4-9.8-33.2-23.5V68.4c0.5-1.3,1-2.6,1.7-3.9c2.5-5.1,6.2-9.4,10.7-12.7c5-3.7,11-6.1,17.5-6.7     c1.1-0.1,2.2-0.2,3.4-0.2h0.2c8.6,0.1,16.5,3.2,22.6,8.4c1.1,1,2.2,2,3.2,3.1c5,5.5,8.2,12.5,9,20.2v0     C68.4,77.9,68.4,79,68.4,80.1z"/>
		</g>
		<g id="Ellipse_2_copy_2-2">
			<circle class="st1" cx="81.3" cy="80.1" r="32.3"/>
		</g>
		<g id="Ellipse_2_copy_3-2">
			<circle class="st1" cx="110.1" cy="96" r="32.3"/>
		</g>
		<g id="Ellipse_2_copy_4-2">
			<circle class="st1" cx="137.2" cy="97.2" r="32.3"/>
		</g>
		<g id="Ellipse_2_copy_5-2">
			<circle class="st1" cx="168.4" cy="86.1" r="32.3"/>
		</g>
		<g id="Ellipse_2_copy_6-2">
			<circle class="st1" cx="198.9" cy="96" r="32.3"/>
		</g>
		<g id="Ellipse_2_copy_7-2">
			<circle class="st1" cx="237.7" cy="97.2" r="32.3"/>
		</g>
		<g id="Ellipse_2_copy_8-2">
			<circle class="st1" cx="264.4" cy="92.2" r="32.3"/>
		</g>
		<g id="Ellipse_2_copy_9-2">
			<circle class="st1" cx="302.3" cy="96.2" r="32.3"/>
		</g>
		<g id="Ellipse_2_copy_10-2">
			<circle class="st1" cx="324.9" cy="103.4" r="32.3"/>
		</g>
		<g id="Ellipse_2_copy_11-2">
			<circle class="st1" cx="351" cy="101" r="32.3"/>
		</g>
		<g id="Ellipse_2_copy_12-2">
			<circle class="st1" cx="387.5" cy="98.5" r="33.6"/>
		</g>
		<g id="Ellipse_2_copy_13-2">
			<circle class="st1" cx="429.5" cy="79.2" r="32.3"/>
		</g>
		<g id="Ellipse_2_copy_14-2">
			<path class="st1" d="M463,12.9v64.4c-0.4,0-0.8-0.1-1.3-0.1c-1-0.1-2-0.2-3-0.5c-7.6-1.5-14.6-5.7-19.5-12.2     c-0.6-0.8-1.2-1.6-1.7-2.5c-2.9-4.7-4.5-9.8-4.8-15c-0.1-1.7-0.1-3.5,0.1-5.2c1-9.6,6.3-18.8,15.1-24.3     C452.7,14.7,457.9,13.2,463,12.9z"/>
		</g>
	</g>
</g>
</svg>