<svg xmlns="http://www.w3.org/2000/svg" xmlns:xlink="http://www.w3.org/1999/xlink" version="1.1" id="Layer_1" x="0px" y="0px" viewBox="0 0 463 131.1" style="enable-background:new 0 0 463 131.1;" xml:space="preserve">
<style type="text/css">
	.st0{fill:#8DAAAD;}
	.st1{fill:#C6E3E6;}
</style>
<g id="Layer_2_1_">
	<g id="background_waves_obyrnati_-_Smart_Object_Group">
		<g id="background_waves_copy_2">
			<g id="Ellipse_2">
				<path class="st0" d="M14.6,129.7c-5.1,1.5-10.2,1.8-15.1,0.9V67c1.3-0.2,2.6-0.4,4-0.5c1.1-0.1,2.1-0.1,3.2,0      c8.2,0.4,16,3.9,21.7,9.7c2.6,2.6,4.7,5.8,6.3,9.3c0.6,1.2,1.1,2.6,1.5,3.9c0,0.1,0.1,0.2,0.1,0.3      C41.1,106.7,31.5,124.5,14.6,129.7z"/>
			</g>
			<g id="Ellipse_2_copy">
				<circle class="st0" cx="37.6" cy="57.5" r="32.3"/>
			</g>
			<g id="Ellipse_2_copy_2">
				<circle class="st0" cx="82.7" cy="57.5" r="32.3"/>
			</g>
			<g id="Ellipse_2_copy_3">
				<circle class="st0" cx="111.5" cy="41.7" r="32.3"/>
			</g>
			<g id="Ellipse_2_copy_4">
				<circle class="st0" cx="126.9" cy="51.5" r="32.3"/>
			</g>
			<g id="Ellipse_2_copy_5">
				<circle class="st0" cx="169.8" cy="51.5" r="32.3"/>
			</g>
			<g id="Ellipse_2_copy_6">
				<circle class="st0" cx="200.3" cy="41.7" r="32.3"/>
			</g>
			<g id="Ellipse_2_copy_7">
				<circle class="st0" cx="239.2" cy="40.5" r="32.3"/>
			</g>
		</g>
		<g id="Ellipse_2-2">
			<path class="st0" d="M463.6,66.9v63.7c-12.5,2.1-25.7-3.4-32.7-14.9c-5-8.1-6-17.5-3.5-26c0.8-2.8,2-5.6,3.6-8.1     c0.9-1.5,2-3,3.2-4.3c2-2.3,4.4-4.3,7.2-6c5.4-3.3,11.3-4.9,17.2-4.8c0.7,0,1.3,0,2,0.1C461.5,66.6,462.5,66.7,463.6,66.9z"/>
		</g>
		<g id="Ellipse_2_copy-2">
			<circle class="st0" cx="429.5" cy="57.5" r="32.3"/>
		</g>
		<g id="Ellipse_2_copy_2-2">
			<circle class="st0" cx="384.4" cy="57.5" r="32.3"/>
		</g>
		<g id="Ellipse_2_copy_3-2">
			<circle class="st0" cx="355.6" cy="41.7" r="32.3"/>
		</g>
		<g id="Ellipse_2_copy_4-2">
			<circle class="st0" cx="344.3" cy="41.7" r="32.3"/>
		</g>
		<g id="Ellipse_2_copy_5-2">
			<circle class="st0" cx="297.2" cy="51.5" r="32.3"/>
		</g>
		<g id="Ellipse_2_copy_6-2">
			<circle class="st0" cx="266.8" cy="41.7" r="32.3"/>
		</g>
	</g>
	<g id="waves_obyrnati_-_Smart_Object_Group">
		<g id="background_waves_copy_4">
			<g id="Ellipse_2-3">
				<path class="st1" d="M11.8,120.4c-4,1.7-8.2,2.5-12.3,2.5V58.3c0.3,0,0.6,0,0.9,0c1.7,0,3.3,0.2,5,0.5c9.7,1.8,18.3,8,23,17.4      c0.3,0.7,0.6,1.3,0.9,2c1,2.3,1.6,4.7,2,7.1c0.2,1.3,0.3,2.6,0.4,3.9C32.3,102.4,24.7,115.1,11.8,120.4z"/>
			</g>
			<g id="Ellipse_2_copy-3">
				<circle class="st1" cx="34.7" cy="50.3" r="35.2"/>
			</g>
			<g id="Ellipse_2_copy_2-3">
				<circle class="st1" cx="82.7" cy="50.3" r="32.3"/>
			</g>
			<g id="Ellipse_2_copy_3-3">
				<circle class="st1" cx="111.5" cy="34.5" r="32.3"/>
			</g>
			<g id="Ellipse_2_copy_4-3">
				<circle class="st1" cx="138.6" cy="33.2" r="32.3"/>
			</g>
			<g id="Ellipse_2_copy_5-3">
				<circle class="st1" cx="169.8" cy="44.3" r="32.3"/>
			</g>
			<g id="Ellipse_2_copy_6-3">
				<circle class="st1" cx="200.3" cy="34.5" r="32.3"/>
			</g>
			<g id="Ellipse_2_copy_7-2">
				<circle class="st1" cx="239.2" cy="33.3" r="32.3"/>
			</g>
		</g>
		<g id="Ellipse_2-4">
			<path class="st1" d="M463.6,58.3v64.6c-14.7,0-27.9-10-31.4-24.9c-0.7-2.8-0.9-5.6-0.8-8.3c0.1-2.8,0.5-5.5,1.3-8.1     c0.4-1.5,1-2.9,1.6-4.3c4-8.8,11.9-15.7,22-18.1c1.9-0.4,3.7-0.7,5.6-0.8c0.1,0,0.3,0,0.4,0C462.6,58.3,463.1,58.3,463.6,58.3z"/>
		</g>
		<g id="Ellipse_2_copy-4">
			<circle class="st1" cx="431.2" cy="49.3" r="32.3"/>
		</g>
		<g id="Ellipse_2_copy_2-4">
			<circle class="st1" cx="386" cy="49.3" r="32.3"/>
		</g>
		<g id="Ellipse_2_copy_3-4">
			<circle class="st1" cx="357.2" cy="33.5" r="32.3"/>
		</g>
		<g id="Ellipse_2_copy_4-4">
			<circle class="st1" cx="330.1" cy="32.3" r="32.3"/>
		</g>
		<g id="Ellipse_2_copy_5-4">
			<circle class="st1" cx="298.9" cy="43.3" r="32.3"/>
		</g>
		<g id="Ellipse_2_copy_6-4">
			<circle class="st1" cx="268.4" cy="33.5" r="32.3"/>
		</g>
		<g id="Ellipse_2_copy_4-5">
			<circle class="st1" cx="124.2" cy="44.2" r="32.3"/>
		</g>
		<g id="Ellipse_2_copy_4-6">
			<circle class="st1" cx="346" cy="34.3" r="32.3"/>
		</g>
	</g>
</g>
</svg>