<svg xmlns="http://www.w3.org/2000/svg" viewBox="0 0 491.62 85.98"><defs><style>.cls-1{fill:#fff;}.cls-1,.cls-2{fill-rule:evenodd;}.cls-2{fill:#c6e3e6;}</style></defs><g id="Layer_2" data-name="Layer 2"><g id="Group_1" data-name="Group 1"><path class="cls-1" d="M491.62,14.94V78.16a33.72,33.72,0,0,1-17-10.7,34.66,34.66,0,0,1-30.24,4.35,34.56,34.56,0,0,1-38.86-2.63A34.63,34.63,0,0,1,378,66.47a34.61,34.61,0,0,1-31.95,1,34.42,34.42,0,0,1-47.62,4.34A34.49,34.49,0,0,1,259,66.17a34.52,34.52,0,0,1-40.84,2.2,34.62,34.62,0,0,1-33.31-2.07A34.43,34.43,0,0,1,137,65.45c-1,.1-2.09.15-3.16.15A33.68,33.68,0,0,1,123,63.83a32.09,32.09,0,0,1-47.19,1.32,32.11,32.11,0,0,1-34.67-2.36,32,32,0,0,1-15.81,4.15,31.67,31.67,0,0,1-10.62-1.81A31.79,31.79,0,0,1,0,72.66V9.9A29.86,29.86,0,0,1,3.89,11,32.1,32.1,0,0,1,44.54,9.1a32.09,32.09,0,0,1,38.79,5.54A32.16,32.16,0,0,1,108.1,12a33.67,33.67,0,0,1,49.84-1.89h0c1.13-.11,2.28-.17,3.44-.17a34.23,34.23,0,0,1,18.51,5.38,34.5,34.5,0,0,1,42.43-3.6,34.56,34.56,0,0,1,38.42,6.06,34.48,34.48,0,0,1,43.47-.25A34.59,34.59,0,0,1,335,17.21,34.43,34.43,0,0,1,378,9.67a34.5,34.5,0,0,1,38.2,3,34.84,34.84,0,0,1,21.44,0,34.47,34.47,0,0,1,43.52,7.13A33.5,33.5,0,0,1,491.62,14.94Z"/><path class="cls-2" d="M491.62,21.57V84.8a33.81,33.81,0,0,1-17-10.71,34.66,34.66,0,0,1-30.24,4.35,34.56,34.56,0,0,1-38.86-2.63A34.63,34.63,0,0,1,378,73.1a34.61,34.61,0,0,1-31.95,1,34.42,34.42,0,0,1-47.62,4.34A34.49,34.49,0,0,1,259,72.8,34.52,34.52,0,0,1,218.18,75a34.62,34.62,0,0,1-33.31-2.07A34.43,34.43,0,0,1,137,72.08c-1,.1-2.09.15-3.16.15A33.68,33.68,0,0,1,123,70.46a32.09,32.09,0,0,1-47.19,1.32,32.11,32.11,0,0,1-34.67-2.36,32,32,0,0,1-15.81,4.15,31.67,31.67,0,0,1-10.62-1.81A31.79,31.79,0,0,1,0,79.29V16.53a29.86,29.86,0,0,1,3.89,1.1,32.1,32.1,0,0,1,40.65-1.9,32.09,32.09,0,0,1,38.79,5.54,32.16,32.16,0,0,1,24.77-2.63,33.67,33.67,0,0,1,49.84-1.89h0c1.13-.11,2.28-.17,3.44-.17A34.23,34.23,0,0,1,179.9,22a34.5,34.5,0,0,1,42.43-3.6,34.56,34.56,0,0,1,38.42,6.06,34.48,34.48,0,0,1,43.47-.25A34.59,34.59,0,0,1,335,23.84,34.43,34.43,0,0,1,378,16.3a34.5,34.5,0,0,1,38.2,3,34.84,34.84,0,0,1,21.44,0,34.47,34.47,0,0,1,43.52,7.13A33.5,33.5,0,0,1,491.62,21.57Z"/></g></g></svg>
