<svg xmlns="http://www.w3.org/2000/svg" viewBox="0 0 464.67 464.67"><defs><style>.cls-1{fill:#f1f2f2;}.cls-2{fill:#231f20;}.cls-3{fill:#414042;}.cls-4{fill:#939598;}.cls-5{fill:#808285;}.cls-6{fill:#6d6e71;}.cls-7{fill:#58595b;}.cls-8{fill:#bcbec0;}.cls-9{fill:#d1d3d4;}.cls-10{fill:none;}.cls-11{fill:#a7a9ac;}</style></defs><g id="Layer_2" data-name="Layer 2"><g id="Layer_2-2" data-name="Layer 2"><circle class="cls-1" cx="232.34" cy="232.34" r="232.34"/><path class="cls-2" d="M334.3,36.94c-27.4-6.68-55.75-11-94-16.43L160.18,33.76c-8,2.28-11.67,3.54-19.54,9.21l-2-11a231.38,231.38,0,0,1,94.5-19.73C247.44,12.4,290.09,14.18,334.3,36.94Z"/><path class="cls-2" d="M399.68,370.26c-.35.55-.7,1.1-1.06,1.64l-54.44-7.14-44.53-6.95L297.09,310l-.08-1.52h0l-4.66-86.89Z"/><polygon class="cls-3" points="344.18 364.76 330.68 427.76 254.39 363.85 235.18 347.76 255.09 350.86 262.11 351.96 299.65 357.81 344.18 364.76"/><path class="cls-4" d="M398.62,371.9c-14.88,22.7-41.25,43.65-67.94,55.86l13.5-63Z"/><polygon class="cls-5" points="254.39 363.85 244.93 394.26 197.68 317.76 235.18 347.76 254.39 363.85"/><path class="cls-6" d="M377.25,66.68,291.68,48.82,273.43,45,240.3,20.51c38.25,5.41,66.6,9.75,94,16.43a198.82,198.82,0,0,1,41.38,28.32Z"/><path class="cls-7" d="M434.68,151.76l-75.1-29.13-41-15.9L291.68,48.82l85.57,17.86C411.1,97.48,426.84,133.39,434.68,151.76Z"/><polygon class="cls-8" points="408.68 373.26 399.68 370.26 292.35 221.59 291.68 185.93 361.26 201.94 374.4 249.4 408.68 373.26"/><path class="cls-2" d="M453.68,220.88c-2.83.61-5.75,1-5.75,1l-22.54-5.18h0l-65.8-94.06,75.1,29.13A278.17,278.17,0,0,1,453.68,220.88Z"/><path class="cls-6" d="M444.18,276.76q-17.74,48.26-35.5,96.5L374.4,249.4Z"/><path class="cls-3" d="M451.93,281c-2.33-1.17-5.42-3.08-7.75-4.25l-40-64.94,21.17,4.87h0l22.54,5.18S450.68,255.76,451.93,281Z"/><path class="cls-1" d="M144.51,144.7c-1,12.79-2.39,20.56-4.79,22.71-15.52-2.15-25-5-31-7.65C118.68,152.23,123,147.59,144.51,144.7Z"/><path class="cls-9" d="M72.68,159.45,21.89,222.31l-13,8.33c.26-12.11,2.37-70.23,40.59-125.15L60.57,131.3h0l10.26,23.84Z"/><path class="cls-8" d="M79.18,71.26l-18.61,60L49.46,105.49A212.38,212.38,0,0,1,79.18,71.26Z"/><path class="cls-8" d="M123.63,39.39l-6.95,16.46L90.52,105,79.18,71.26A214.91,214.91,0,0,1,123.63,39.39Z"/><line class="cls-10" x1="374.4" y1="249.4" x2="374.39" y2="249.4"/><polygon class="cls-7" points="444.18 276.76 374.4 249.4 361.26 201.94 404.21 211.82 444.18 276.76"/><polygon class="cls-8" points="425.38 216.69 404.21 211.82 361.26 201.94 280.12 129.04 281.24 92.24 318.59 106.73 359.58 122.63 425.38 216.69"/><path class="cls-5" d="M361.26,201.94l-69.58-16c-2.33-30.57-7.12-47-11.56-56.89Z"/><polygon class="cls-4" points="281.24 92.24 280.12 129.04 207.18 63.51 281.24 92.24"/><path class="cls-7" d="M292.35,221.59l-53.67-49.83L207.18,63.51,280.12,129c4.44,9.93,9.23,26.32,11.56,56.89Z"/><polygon class="cls-6" points="318.59 106.73 281.24 92.24 207.18 63.51 273.43 45.01 291.68 48.82 318.59 106.73"/><polygon class="cls-4" points="273.43 45.01 207.18 63.51 185.79 49.97 160.18 33.76 240.3 20.51 273.43 45.01"/><polygon class="cls-1" points="185.79 49.97 179.84 117.64 179.48 119.33 145.88 89.09 178.94 56.69 185.79 49.97"/><polygon class="cls-5" points="238.68 171.76 209.26 144.7 179.84 117.64 185.79 49.97 207.18 63.51 238.68 171.76"/><polygon class="cls-8" points="238.68 171.76 191.43 239.01 151.68 251.26 158.42 219.29 158.42 219.28 209.26 144.7 238.68 171.76"/><polygon class="cls-7" points="255.09 350.86 235.18 347.76 197.68 317.76 232.34 281.68 255.09 350.86"/><path class="cls-3" d="M297.09,310h0l-35,41.94-7-1.1-22.75-69.18,20.06-20.89c29.43,18.27,42.94,41.39,44.61,47.69h0Z"/><line class="cls-10" x1="252.43" y1="260.76" x2="252.4" y2="260.79"/><polygon class="cls-2" points="209.26 144.7 158.42 219.28 171.2 158.62 179.48 119.33 179.68 119.51 179.84 117.64 209.26 144.7"/><polygon class="cls-9" points="171.2 158.62 158.42 219.28 158.42 219.29 151.68 251.26 85.18 241.26 82.93 183.26 139.72 167.41 171.2 158.62"/><polygon class="cls-11" points="85.18 241.26 49.43 260.01 26.95 232.34 44.68 234.01 49.81 204.45 82.93 183.26 85.18 241.26"/><line class="cls-10" x1="26.95" y1="232.34" x2="26.68" y2="232.01"/><polygon class="cls-2" points="49.81 204.45 44.68 234.01 26.95 232.34 8.87 230.64 21.89 222.31 49.81 204.45"/><line class="cls-10" x1="49.46" y1="105.49" x2="49.43" y2="105.41"/><line class="cls-10" x1="171.21" y1="158.62" x2="171.2" y2="158.62"/><path class="cls-2" d="M98.18,127.76c-10.67,11-17.25,20.08-27.35,27.39L60.57,131.31h0l18.61-60L90.52,105Z"/><path class="cls-7" d="M142.42,52.93c-14.29.78-25.74,3.17-25.74,2.92l6.95-16.46,11.51-27.28L138.68,32l2,11Z"/><line class="cls-10" x1="142.43" y1="53.01" x2="142.42" y2="52.93"/><path class="cls-10" d="M140.64,43l-.16.12"/><polygon class="cls-5" points="82.93 183.26 49.81 204.45 21.89 222.31 72.68 159.45 82.93 183.26"/><path class="cls-8" d="M185.79,50l-6.85,6.72c-10.85-4-24.66-4.42-36.52-3.76l-1.78-10c7.87-5.67,11.52-6.93,19.54-9.21Z"/><path class="cls-3" d="M179.48,119.33l-8.28,39.29-31.48,8.79c2.4-2.15,3.79-9.92,4.79-22.71-21.5,2.89-25.83,7.53-35.83,15.06,6,2.67,15.52,5.5,31,7.65L82.93,183.26,72.68,159.45l-1.85-4.3c10.1-7.31,16.68-16.39,27.35-27.39L90.52,105l26.16-49.13c0,.25,11.45-2.14,25.74-2.92,11.86-.66,25.67-.21,36.52,3.76l-33.06,32.4Z"/><path class="cls-1" d="M299.65,357.81,262.11,352l35-41.94h0Z"/><path class="cls-6" d="M292.35,221.59C233.09,227,216.68,231.76,191.43,239l47.25-67.25Z"/><path class="cls-8" d="M297,308.48c-1.67-6.3-15.18-29.42-44.61-47.69-15.63-9.72-35.75-18.06-61-21.78,25.25-7.25,41.66-12,100.92-17.42Z"/><path class="cls-10" d="M334.34,37h0"/></g></g></svg>